<svg width="164" height="161" viewBox="0 0 164 161" fill="none" xmlns="http://www.w3.org/2000/svg">
<path d="M81.7778 40V48V40ZM81.7778 118.264L74.0566 116.171L72.3929 122.306L77.9937 125.313L81.7778 118.264ZM123.614 37.5436C122.257 33.3388 117.748 31.0298 113.544 32.3864C109.339 33.743 107.03 38.2515 108.386 42.4564L116 40L123.614 37.5436ZM32 118.264C32 122.683 35.5817 126.264 40 126.264C44.4183 126.264 48 122.683 48 118.264H40H32ZM81.7778 40V48C81.8211 48 81.6054 47.9948 81.3273 47.8371C81.0818 47.6977 81.082 47.6055 81.249 47.8519C81.6906 48.5033 82.3745 50.1398 82.8034 53.3036C83.6471 59.5263 83.1145 68.4258 81.8086 78.0573C80.5253 87.5231 78.5891 97.0581 76.9589 104.272C76.1465 107.868 75.4159 110.861 74.8904 112.948C74.6277 113.991 74.4165 114.807 74.2724 115.357C74.2003 115.632 74.145 115.84 74.1084 115.978C74.0901 116.046 74.0764 116.097 74.0677 116.129C74.0634 116.146 74.0602 116.157 74.0584 116.164C74.0575 116.168 74.0568 116.17 74.0565 116.171C74.0564 116.171 74.0564 116.171 74.0563 116.172C74.0564 116.171 74.0566 116.171 81.7778 118.264C89.499 120.358 89.4993 120.357 89.4997 120.355C89.5 120.354 89.5005 120.352 89.501 120.351C89.5019 120.347 89.5033 120.342 89.5049 120.336C89.5081 120.324 89.5127 120.307 89.5184 120.286C89.53 120.243 89.5465 120.181 89.5677 120.102C89.6101 119.943 89.6713 119.712 89.7495 119.414C89.9058 118.817 90.1299 117.952 90.4061 116.855C90.9582 114.662 91.7199 111.541 92.5654 107.799C94.2512 100.338 96.2942 90.3073 97.6636 80.207C99.0105 70.2724 99.8043 59.6059 98.6584 51.154C98.0925 46.9806 96.9526 42.5026 94.4927 38.8739C91.752 34.8309 87.4188 32 81.7778 32V40ZM81.7778 118.264C77.9937 125.313 77.9979 125.315 78.0022 125.317C78.0037 125.318 78.0081 125.32 78.0111 125.322C78.0172 125.325 78.0235 125.329 78.0301 125.332C78.0434 125.339 78.0577 125.347 78.0731 125.355C78.104 125.371 78.1392 125.389 78.1787 125.41C78.2577 125.45 78.3541 125.498 78.4672 125.554C78.6934 125.664 78.9877 125.801 79.3459 125.957C80.061 126.267 81.0388 126.652 82.2459 127.035C84.6512 127.798 88.0322 128.571 92.098 128.687C100.445 128.926 111.097 126.36 121.488 116.563L116 110.742L110.512 104.921C103.403 111.624 96.9442 112.819 92.5548 112.694C90.2525 112.628 88.3592 112.188 87.0822 111.783C86.4482 111.582 85.9828 111.395 85.7151 111.279C85.5819 111.221 85.4998 111.182 85.4725 111.169C85.4589 111.162 85.4592 111.162 85.4739 111.17C85.4812 111.173 85.4922 111.179 85.5068 111.187C85.5141 111.19 85.5224 111.195 85.5315 111.2C85.5361 111.202 85.5409 111.205 85.546 111.207C85.5485 111.209 85.5525 111.211 85.5537 111.212C85.5577 111.214 85.5618 111.216 81.7778 118.264ZM116 110.742L121.488 116.563C127.897 110.52 130.431 101.759 131.334 93.6083C132.258 85.2711 131.624 76.2076 130.485 68.0741C129.338 59.8785 127.626 52.2769 126.211 46.7499C125.502 43.977 124.861 41.7038 124.395 40.112C124.161 39.3156 123.971 38.6885 123.836 38.2532C123.769 38.0355 123.716 37.8656 123.678 37.7465C123.659 37.6869 123.644 37.6399 123.634 37.606C123.628 37.5891 123.624 37.5754 123.62 37.5649C123.619 37.5597 123.617 37.5554 123.616 37.5518C123.616 37.55 123.615 37.548 123.615 37.5471C123.614 37.5453 123.614 37.5436 116 40C108.386 42.4564 108.386 42.4551 108.386 42.4541C108.386 42.4541 108.385 42.4533 108.385 42.4531C108.385 42.4529 108.386 42.4535 108.386 42.4548C108.387 42.4576 108.389 42.4636 108.392 42.4727C108.398 42.4911 108.407 42.5222 108.421 42.5658C108.449 42.6529 108.492 42.7896 108.548 42.9732C108.662 43.3405 108.83 43.8948 109.041 44.6139C109.463 46.0529 110.053 48.1462 110.711 50.7163C112.031 55.8752 113.6 62.8654 114.64 70.2927C115.688 77.7822 116.149 85.3728 115.431 91.8467C114.694 98.507 112.853 102.714 110.512 104.921L116 110.742ZM81.7778 40V32C72.6736 32 59.6958 35.2901 49.2398 48.6222C39.0232 61.6491 32 83.282 32 118.264H40H48C48 85.052 54.7268 67.5527 61.8297 58.4961C68.6931 49.7447 76.6042 48 81.7778 48V40Z" fill="black"/>
</svg>
